#!OML:ASF X:\für Bonn\!DataBase\2005_08_12_Daniel\c3d\Daniel.ASF
:FULLY-SPECIFIED
:DEGREES
1640
root 24.707 17.564 -36.1745 -180.95 194.927 -178.452
lowerback 12.4838 2.85581 -0.484799
upperback 1.51133 3.58232 -2.14795
thorax -5.29195 1.74708 -2.58066
lowerneck -0.54138 1.04599 -7.31332
upperneck 8.35974 1.33213 4.04634
head 2.71857 0.555961 2.64982
rclavicle -7.84702e-014 2.98177e-014
rhumerus -26.9394 -11.5876 -85.7724
rradius 16.4712
rwrist 25.8613
rhand -18.7181 17.7293
rfingers 7.12502
rthumb 7.57728 -12.115
lclavicle -7.84702e-014 2.98177e-014
lhumerus -35.1323 30.7771 74.7757
lradius 19.4471
lwrist -35.0508
lhand -7.45646 -5.93115
lfingers 7.12502
lthumb 18.4318 23.2156
rfemur -7.05179 6.28578 22.5911
rtibia 33.6691
rfoot -30.9737 -15.4668
rtoes -7.36305
lfemur -15.6475 6.41165 -18.8415
ltibia 46.9959
lfoot -25.795 11.3477
ltoes -16.9653
1641
root 24.7362 17.5715 -36.2068 -180.92 195.831 -178.582
lowerback 12.5002 2.77485 -0.366616
upperback 1.54145 3.49247 -2.11271
thorax -5.26774 1.70083 -2.59478
lowerneck -0.52062 1.0176 -7.25989
upperneck 8.31458 1.28752 4.08404
head 2.70216 0.53657 2.65071
rclavicle 4.42296e-015 -1.78906e-014
rhumerus -26.8071 -12.2026 -85.4453
rradius 16.176
rwrist 26.7671
rhand -18.8243 17.7203
rfingers 7.12502
rthumb 7.47474 -12.1276
lclavicle 4.42296e-015 -1.78906e-014
lhumerus -34.7166 30.8781 75.1566
lradius 19.1518
lwrist -36.0926
lhand -7.69279 -5.4808
lfingers 7.12502
lthumb 18.2044 23.6873
rfemur -7.14001 7.18076 22.697
rtibia 33.4725
rfoot -30.8975 -15.4241
rtoes -7.37092
lfemur -15.451 5.71517 -18.646
ltibia 46.8717
lfoot -25.8761 11.0612
ltoes -17.7073
1642
root 24.7655 17.5791 -36.2368 -180.862 196.717 -178.714
lowerback 12.4848 2.68393 -0.254816
upperback 1.55949 3.39037 -2.05479
thorax -5.24109 1.64898 -2.57818
lowerneck -0.431838 1.0332 -7.33267
upperneck 8.23378 1.29628 4.19143
head 2.65809 0.54174 2.69823
rclavicle 2.67365e-014 -4.77083e-015
rhumerus -26.7326 -12.944 -84.9977
rradius 15.8615
rwrist 27.8859
rhand -18.9395 17.6794
rfingers 7.12502
rthumb 7.36352 -12.1724
lclavicle 2.67365e-014 -4.77083e-015
lhumerus -34.4655 31.4988 75.247
lradius 18.8475
lwrist -37.5413
lhand -7.86703 -5.14539
lfingers 7.12502
lthumb 18.0368 24.0383
rfemur -7.24514 8.05349 22.8052
rtibia 33.2732
rfoot -30.7565 -15.418
rtoes -7.35662
lfemur -15.2871 4.94335 -18.4704
ltibia 46.7448
lfoot -25.9097 10.7401
ltoes -18.7367
1643
root 24.7943 17.5862 -36.2639 -180.792 197.578 -178.845
lowerback 12.4323 2.57955 -0.128822
upperback 1.60343 3.27212 -2.01418
thorax -5.16565 1.5895 -2.5821
lowerneck -0.463312 1.03722 -7.3521
upperneck 8.19553 1.29972 4.25161
head 2.65085 0.544937 2.72232
rclavicle 8.79622e-015 -1.63003e-014
rhumerus -26.5858 -13.7093 -84.5931
rradius 15.5308
rwrist 28.7997
rhand -18.9563 17.5553
rfingers 7.12502
rthumb 7.34731 -12.2971
lclavicle 8.79622e-015 -1.63003e-014
lhumerus -34.1676 32.1462 75.3197
lradius 18.6042
lwrist -38.6991
lhand -8.13454 -4.83497
lfingers 7.12502
lthumb 17.7794 24.3723
rfemur -7.33718 8.90804 22.9029
rtibia 33.0681
rfoot -30.7015 -15.3773
rtoes -7.36625
lfemur -15.1237 4.15799 -18.296
ltibia 46.6072
lfoot -25.9649 10.2754
ltoes -19.6008
1644
root 24.8233 17.5951 -36.2895 -180.701 198.428 -178.997
lowerback 12.3847 2.49008 0.0153649
upperback 1.62138 3.17554 -1.97457
thorax -5.11864 1.53998 -2.60242
lowerneck -0.420834 1.03585 -7.31046
upperneck 8.16074 1.29254 4.25585
head 2.63157 0.542435 2.7145
rclavicle -2.05245e-014 -2.3059e-014
rhumerus -26.4922 -14.9588 -83.9832
rradius 15.1096
rwrist 30.2418
rhand -18.973 17.5717
rfingers 7.12502
rthumb 7.33123 -12.2813
lclavicle -2.05245e-014 -2.3059e-014
lhumerus -33.9439 32.9802 75.2418
lradius 18.3511
lwrist -40.0508
lhand -8.41023 -4.47804
lfingers 7.12502
lthumb 17.5141 24.753
rfemur -7.45716 9.64729 23.0052
rtibia 32.8681
rfoot -30.5671 -15.3107
rtoes -7.42137
lfemur -14.9669 3.34748 -18.1143
ltibia 46.462
lfoot -26.0599 9.65448
ltoes -19.9461
1645
root 24.8524 17.6048 -36.3125 -180.632 199.286 -179.132
lowerback 12.3881 2.41322 0.173397
upperback 1.61274 3.09607 -1.94305
thorax -5.12627 1.49775 -2.64575
lowerneck -0.330993 1.02558 -7.5012
upperneck 8.11576 1.26385 4.44811
head 2.60241 0.527173 2.81334
rclavicle -6.11263e-015 7.95139e-016
rhumerus -26.5039 -16.0456 -83.4045
rradius 14.7469
rwrist 31.2197
rhand -18.8959 17.4218
rfingers 7.12502
rthumb 7.40559 -12.4286
lclavicle -6.11263e-015 7.95139e-016
lhumerus -33.8112 33.87 75.082
lradius 18.1169
lwrist -41.2898
lhand -8.74459 -4.25926
lfingers 7.12502
lthumb 17.1923 25.0002
rfemur -7.54331 10.3602 23.0698
rtibia 32.6824
rfoot -30.4551 -15.1318
rtoes -7.22003
lfemur -14.7692 2.56612 -17.936
ltibia 46.2968
lfoot -26.2403 8.79904
ltoes -19.8556
1646
root 24.8817 17.6122 -36.3331 -180.567 200.105 -179.267
lowerback 12.3958 2.33649 0.335974
upperback 1.606 3.01681 -1.92209
thorax -5.13374 1.45545 -2.70294
lowerneck -0.234882 1.01997 -7.57858
upperneck 8.06567 1.2434 4.55762
head 2.56948 0.517082 2.86269
rclavicle -3.83157e-014 2.0276e-014
rhumerus -26.541 -17.2113 -82.7866
rradius 14.3999
rwrist 32.2605
rhand -18.8087 17.3385
rfingers 7.12502
rthumb 7.48978 -12.5089
lclavicle -3.83157e-014 2.0276e-014
lhumerus -33.6345 34.5604 74.9631
lradius 17.9515
lwrist -42.3341
lhand -9.04156 -4.07597
lfingers 7.12502
lthumb 16.9064 25.2082
rfemur -7.62277 10.9575 23.1326
rtibia 32.5032
rfoot -30.2976 -14.973
rtoes -7.27193
lfemur -14.5697 1.73087 -17.7875
ltibia 46.1266
lfoot -26.4328 7.87901
ltoes -19.9042
1647
root 24.9109 17.6186 -36.3526 -180.509 200.947 -179.405
lowerback 12.377 2.27181 0.500611
upperback 1.64528 2.95411 -1.9026
thorax -5.07752 1.42235 -2.76256
lowerneck -0.235832 0.996206 -7.69005
upperneck 8.01149 1.20674 4.67385
head 2.55445 0.499085 2.92214
rclavicle 3.47873e-016 7.55382e-015
rhumerus -26.5197 -18.5927 -82.1186
rradius 14.0288
rwrist 33.349
rhand -18.6829 17.2545
rfingers 7.12502
rthumb 7.61125 -12.5886
lclavicle 3.47873e-016 7.55382e-015
lhumerus -33.3363 35.1463 74.9628
lradius 17.7883
lwrist -43.0637
lhand -9.31146 -4.10476
lfingers 7.12502
lthumb 16.6466 25.2014
rfemur -7.68817 11.6058 23.1869
rtibia 32.3312
rfoot -30.1885 -14.794
rtoes -7.20698
lfemur -14.3275 0.914347 -17.6397
ltibia 45.9568
lfoot -26.722 6.8222
ltoes -19.6764
1648
root 24.9407 17.6251 -36.369 -180.393 201.733 -179.579
lowerback 12.3525 2.19323 0.706249
upperback 1.64113 2.87927 -1.86725
thorax -5.06353 1.38198 -2.82804
lowerneck -0.223855 0.977007 -7.8325
upperneck 7.98045 1.17472 4.8046
head 2.54473 0.482391 2.99293
rclavicle 4.6118e-014 -1.19271e-014
rhumerus -26.5483 -19.8435 -81.4259
rradius 13.6329
rwrist 34.3448
rhand -18.5776 17.2702
rfingers 7.12502
rthumb 7.71291 -12.5691
lclavicle 4.6118e-014 -1.19271e-014
lhumerus -32.9209 35.09 75.2797
lradius 17.7388
lwrist -43.0204
lhand -9.53351 -3.98206
lfingers 7.12502
lthumb 16.4328 25.3419
rfemur -7.79957 12.1366 23.2594
rtibia 32.1692
rfoot -30.057 -14.5616
rtoes -7.19375
lfemur -14.1458 0.0870371 -17.4793
ltibia 45.7877
lfoot -26.9706 5.82219
ltoes -19.6222
1649
root 24.9699 17.6327 -36.3823 -180.315 202.533 -179.719
lowerback 12.3766 2.13702 0.864959
upperback 1.61572 2.82766 -1.82823
thorax -5.10049 1.35298 -2.87022
lowerneck -0.180119 0.949312 -7.98921
upperneck 7.98397 1.12851 4.93538
head 2.54199 0.457341 3.06657
rclavicle -7.60351e-015 1.35174e-014
rhumerus -26.7344 -21.1025 -80.6479
rradius 13.3754
rwrist 35.3211
rhand -18.3904 17.2297
rfingers 7.12502
rthumb 7.89352 -12.6029
lclavicle -7.60351e-015 1.35174e-014
lhumerus -32.576 34.8788 75.6309
lradius 17.7471
lwrist -42.8361
lhand -9.80383 -4.11331
lfingers 7.12502
lthumb 16.1726 25.232
rfemur -7.87921 12.6474 23.2946
rtibia 32.0136
rfoot -29.9255 -14.3308
rtoes -7.64367
lfemur -13.9622 -0.558288 -17.4024
ltibia 45.6117
lfoot -27.1584 4.9729
ltoes -20.2341
1650
root 24.9988 17.6382 -36.3935 -180.237 203.339 -179.876
lowerback 12.3841 2.08605 1.09083
upperback 1.61916 2.78835 -1.85659
thorax -5.09077 1.32908 -3.02125
lowerneck -0.217831 0.909331 -7.95055
upperneck 7.98559 1.06946 5.03187
head 2.55387 0.431735 3.09236
rclavicle 1.75427e-014 7.95139e-016
rhumerus -26.889 -22.3876 -79.984
rradius 13.0916
rwrist 36.1629
rhand -18.2728 17.2519
rfingers 7.12502
rthumb 8.00707 -12.5764
lclavicle 1.75427e-014 7.95139e-016
lhumerus -31.9818 34.0393 76.1763
lradius 17.7952
lwrist -42.0715
lhand -9.86571 -4.23227
lfingers 7.12502
lthumb 16.113 25.1179
rfemur -7.93384 13.2119 23.3513
rtibia 31.863
rfoot -29.8191 -14.1341
rtoes -7.87086
lfemur -13.7601 -1.18669 -17.3147
ltibia 45.4209
lfoot -27.384 4.11767
ltoes -20.6401
